<svg class="hidden md:block w-14 md:w-20 h-auto text-black mx-auto dark:text-white" fill="none" xmlns="http://www.w3.org/2000/svg" viewBox="0 0 107 32">
            <g clip-path="url(#a)" fill="currentColor">
              <path fill-rule="evenodd" clip-rule="evenodd" d="M3.1 0A3.1 3.1 0 0 0 0 3.1v25.2c0 1.7 1.4 3.1 3.1 3.1h25.2c1.7 0 3.1-1.4 3.1-3.1V3C31.4 1.4 30 0 28.3 0H3Zm7.3 18H13c2 0 3.3-2 2.5-3.8l-2.7-6a2.4 2.4 0 0 1 4.4-2L24.7 23a2.5 2.5 0 1 1-4.6 2l-.5-1c-.4-1-1.4-1.6-2.5-1.6h-3c-1 0-2 .6-2.5 1.6l-.4 1a2.5 2.5 0 0 1-4.7-2L8 19.6c.4-1 1.3-1.6 2.4-1.6Zm10.7-9.4L22.5 5c0-.3.5-.3.6 0l.6 1.2.1.1 1.5.8c.2.1.2.5 0 .6L21.5 9a.3.3 0 0 1-.5-.4ZM7.4 13.4l3.6 1.3c.3.1.5-.1.4-.4l-1.3-3.6a.3.3 0 0 0-.6 0L8.7 12l-.1.2-1.3.6c-.2.1-.2.5 0 .6ZM42.1 26.7h-3l6.6-20.3c.1-.3.4-.4.6-.4h4.5c.2 0 .5.1.6.4L58 26.7h-3l-2-6.3H44l-2 6.3Zm2.9-9 2.8-8.6a.8.8 0 0 1 1.5 0l2.8 8.7H45Z"></path>
              <path d="M60.5 11.3v15.4h2.7V12c0-.3-.3-.6-.7-.6h-2ZM106 6h-2v20.7h2.7V6.6c0-.3-.3-.6-.7-.6ZM68.2 13.5a2.2 2.2 0 1 1-4.4 0 2.2 2.2 0 0 1 4.4 0ZM77.9 11.4c3.9.3 5.4 3.8 5.7 5.4h-2.9c-.3-2-2.7-3.9-5.7-2.8-3.3 1.2-3.2 4.8-3 6 .2 1.1.6 3 3 4 3 1.1 5.4-.8 5.7-2.8h2.9c-.3 1.7-1.8 5-5.7 5.4-4.3.5-6-1.5-6.8-2.4a7 7 0 0 1-1.4-2.8c-.8-3.5.4-6.5 1.4-7.6.7-1 2.5-2.8 6.8-2.4Z"></path>
              <path fill-rule="evenodd" clip-rule="evenodd" d="M87.8 13.8c-1 1-2.2 4-1.5 7.6.2.8.8 2 1.5 2.8.7.9 2.3 2.5 5.8 2.5 3.6 0 5.1-1.6 5.9-2.5a7 7 0 0 0 1.4-2.8c.8-3.5-.5-6.5-1.4-7.6-.7-1-2.3-2.5-5.9-2.5-3.5 0-5.1 1.6-5.8 2.5Zm1 6.3c-.2-1.3-.4-4.9 3-6a5.4 5.4 0 0 1 3.6 0c3.4 1.1 3.3 4.7 3.1 6-.2 1-.6 3-3 4a5.4 5.4 0 0 1-3.7 0c-2.4-1-2.9-3-3-4Z"></path>
            </g>
          </svg>